<svg width="196" height="49" viewBox="0 0 196 49" fill="none" xmlns="http://www.w3.org/2000/svg">
<g clip-path="url(#clip0_21_105)">
<path d="M124 12C136.731 11.2247 136.731 11.2247 141.375 14.0625C143.415 17.7511 143.595 19.8381 143 24C142.443 24.8456 141.886 25.6913 141.312 26.5625C140.879 27.3669 140.446 28.1712 140 29C141.192 32.3013 141.192 32.3013 143 35C140.625 34.8125 140.625 34.8125 138 34C136.688 31.4375 136.688 31.4375 136 29C133.03 29 130.06 29 127 29C127 30.98 127 32.96 127 35C126.01 35 125.02 35 124 35C124 33.02 124 31.04 124 29C118.72 29 113.44 29 108 29C108 27.68 108 26.36 108 25C113.28 25 118.56 25 124 25C124 20.71 124 16.42 124 12Z" fill="#EDECED"/>
<path d="M16 12C22.6 12 29.2 12 36 12C36 13.32 36 14.64 36 16C30.72 16 25.44 16 20 16C20 17.98 20 19.96 20 22C23.3 22 26.6 22 30 22C30 22.99 30 23.98 30 25C26.37 25 22.74 25 19 25C19 27.31 19 29.62 19 32C24.61 32 30.22 32 36 32C36 32.99 36 33.98 36 35C29.4 35 22.8 35 16 35C16 27.41 16 19.82 16 12Z" fill="#ECECEC"/>
<path d="M81 12C86 13 86 13 87.4856 14.5823C87.8784 15.2474 88.2711 15.9124 88.6758 16.5977C89.1108 17.3163 89.5459 18.035 89.9941 18.7754C90.4292 19.5301 90.8643 20.2849 91.3125 21.0625C91.7669 21.8211 92.2213 22.5797 92.6895 23.3613C93.8074 25.2324 94.9056 27.1151 96 29C96.33 23.39 96.66 17.78 97 12C97.99 12 98.98 12 100 12C100 19.59 100 27.18 100 35C95 34 95 34 93.5144 32.5095C92.9253 31.5747 92.9253 31.5747 92.3242 30.6211C91.6716 29.6108 91.6716 29.6108 91.0059 28.5801C90.3533 27.5195 90.3533 27.5195 89.6875 26.4375C89.0059 25.3711 89.0059 25.3711 88.3105 24.2832C87.1933 22.5308 86.0948 20.7665 85 19C84.67 24.28 84.34 29.56 84 35C83.01 35 82.02 35 81 35C81 27.41 81 19.82 81 12Z" fill="#F9F9F9"/>
<path d="M71 12C74.0251 13.736 76.4179 15.8358 78 19C78.53 22.7857 78.8302 26.4486 76.9883 29.8906C74.8414 32.5469 73.2588 33.9137 70 35C65.0326 35.368 61.8935 35.2446 58 32C55.6882 28.6094 55 26.6161 55 22.5C56.2504 18.1235 57.839 16.238 61 13C64.2286 11.3857 67.5099 11.4043 71 12ZM60.5 17.5625C58.3899 20.9914 58.3751 23.0422 59 27C61.446 30.3812 62.893 31.7694 67 32.625C71.0743 31.7762 72.5441 30.3227 75 27C75.7096 23.2155 75.278 21.5329 73.5 18.125C70.4583 15.5396 68.7999 15.3099 64.9062 15.5859C62.7955 15.932 62.7955 15.932 60.5 17.5625Z" fill="#E9E9E9"/>
<path d="M102 12C108.6 12 115.2 12 122 12C122 13.32 122 14.64 122 16C116.72 16 111.44 16 106 16C106 21.28 106 26.56 106 32C111.28 32 116.56 32 122 32C122 32.99 122 33.98 122 35C115.4 35 108.8 35 102 35C102 27.41 102 19.82 102 12Z" fill="#E3E3E3"/>
<path d="M160 12C164 13 163 13 165 15C164.67 15.66 164.34 16.32 164 17C163.241 16.9652 162.481 16.9304 161.699 16.8945C160.705 16.8675 159.711 16.8404 158.688 16.8125C157.701 16.7777 156.715 16.7429 155.699 16.707C152.998 16.7785 152.998 16.7785 151.172 18.2969C149.182 21.1893 149.584 23.6151 150 27C151.353 29.6032 151.353 29.6032 154 31C156.758 31.3211 159.205 31.1863 162 31C162 28.36 162 25.72 162 23C162.99 23 163.98 23 165 23C165 26.96 165 30.92 165 35C152.946 35.6696 152.946 35.6696 149.313 32.625C145.87 28.7176 145.658 26.3211 145.715 21.2578C146.141 17.8862 147.535 16.2598 150 14C153.265 11.7142 156.074 11.5994 160 12Z" fill="#F5F4F5"/>
<path d="M50 12C52.9375 13.5 52.9375 13.5 55 15C54.01 15.99 53.02 16.98 52 18C51.67 17.67 51.34 17.34 51 17C45.8218 16.5507 45.8218 16.5507 41 18C39.421 21.158 39.1225 24.5729 40 28C42.2074 30.2987 43.371 30.9819 46.5781 31.0742C47.9007 30.8828 47.9007 30.8828 49.25 30.6875C50.142 30.5676 51.0341 30.4477 51.9531 30.3242C52.6286 30.2172 53.3041 30.1102 54 30C54 30.99 54 31.98 54 33C50.3324 35.3473 47.283 35.4431 43 35C39.9181 33.3718 37.7358 31.9699 35.625 29.1875C34.6659 25.8306 34.5269 23.4892 35 20C39.1 13.6487 42.3281 11.4799 50 12Z" fill="#E7E7E7"/>
<path d="M166 12C168.355 12.3086 168.355 12.3086 171 13C173.312 16.0625 173.312 16.0625 175 19C177.335 16.7426 179.187 14.7194 181 12C182.32 12.33 183.64 12.66 185 13C184.506 13.6664 184.013 14.3329 183.504 15.0195C178.841 21.728 176.889 26.8119 177 35C176.01 35 175.02 35 174 35C174.009 34.3452 174.018 33.6903 174.027 33.0156C173.753 24.5565 170.646 18.9506 166 12Z" fill="#F3F2F2"/>
<path d="M127 16C128.791 15.9461 130.583 15.9072 132.375 15.875C133.373 15.8518 134.37 15.8286 135.398 15.8047C138 16 138 16 140 18C140.25 20.5 140.25 20.5 140 23C138 25 138 25 135.398 25.1953C134.401 25.1721 133.403 25.1489 132.375 25.125C130.871 25.0979 130.871 25.0979 129.336 25.0703C128.565 25.0471 127.794 25.0239 127 25C127 22.03 127 19.06 127 16Z" fill="#050814"/>
<path d="M64 17C64.33 17.99 64.66 18.98 65 20C65.99 20 66.98 20 68 20C68 19.01 68 18.02 68 17C68.66 17 69.32 17 70 17C70.33 19.64 70.66 22.28 71 25C70.01 25.33 69.02 25.66 68 26C68 27.65 68 29.3 68 31C67.34 31 66.68 31 66 31C66 29.35 66 27.7 66 26C65.01 25.67 64.02 25.34 63 25C63.33 22.36 63.66 19.72 64 17Z" fill="#6D6D6D"/>
<path d="M68 17C68.66 17 69.32 17 70 17C70.33 19.64 70.66 22.28 71 25C70.01 25.33 69.02 25.66 68 26C67.1555 22.6218 66.8915 20.3253 68 17Z" fill="#E2E2E2"/>
<path d="M108 20C110.64 20 113.28 20 116 20C116 20.99 116 21.98 116 23C113.36 23 110.72 23 108 23C108 22.01 108 21.02 108 20Z" fill="#FDFDFD"/>
<path d="M64 17C65.9451 19.9176 66.4528 21.6254 67 25C65.68 25 64.36 25 63 25C63.33 22.36 63.66 19.72 64 17Z" fill="#F3F3F3"/>
</g>
<defs>
<clipPath id="clip0_21_105">
<rect width="196" height="49" fill="white"/>
</clipPath>
</defs>
</svg>
